<svg xmlns="http://www.w3.org/2000/svg" width="26" height="38" viewBox="0 0 26 38"><g><g><path fill="#fff" d="M19.085 24.133c0 4.763-2.724 7.542-6.084 7.542-3.36 0-6.084-2.779-6.084-7.542 0-4.764 2.724-9.71 6.084-9.71 3.36 0 6.084 4.946 6.084 9.71zm3.887 9.575c-2.853 3.162-7.006 4.289-9.941 4.289h-.081c-3.04-.016-7.271-1.176-10.107-4.393C.545 30.996-.387 27.46.147 23.382c.444-3.388 1.915-6.648 3.212-9.525.36-.797.699-1.55.995-2.257.707-1.695 1.277-3.359 1.78-4.828.939-2.745 1.617-4.728 2.725-5.68C9.705.365 10.61-.004 11.55-.004c.496 0 .994.108 1.471.316a3.673 3.673 0 0 1 1.471-.316c.94 0 1.846.369 2.692 1.096 1.087.934 1.759 2.903 2.688 5.629.513 1.503 1.094 3.207 1.816 4.91.31.736.67 1.51 1.05 2.33 1.31 2.819 2.792 6.014 3.162 9.45.443 4.122-.57 7.683-2.93 10.297zm.404-10.028c-.325-3.022-1.715-6.016-2.941-8.657-.39-.84-.758-1.633-1.086-2.409-.757-1.787-1.353-3.537-1.88-5.08-.678-1.988-1.38-4.043-1.943-4.528-.651-.56-1.178-.627-1.778-.211l-.726.503-.726-.503c-.258-.18-.508-.27-.745-.27-.314 0-.662.162-1.034.481-.585.503-1.294 2.577-1.98 4.583-.516 1.504-1.1 3.21-1.839 4.982-.31.74-.656 1.51-1.023 2.322-1.225 2.718-2.615 5.798-3.01 8.816-.443 3.384.258 6.152 2.087 8.226 2.274 2.58 5.811 3.513 8.186 3.533h.167c2.279-.02 5.705-.93 7.978-3.45 1.89-2.096 2.662-4.9 2.293-8.338z"/></g></g></svg>