<svg xmlns="http://www.w3.org/2000/svg" width="32" height="38" viewBox="0 0 32 38"><g><g><path fill="#e3e9ea" d="M27.482 29.807a72.65 72.65 0 0 1-3.596 4.33c-.37.459-3.25 3.862-7.43 3.862-.093 0-.187-.002-.28-.005h-.352a7.344 7.344 0 0 1-.28.005c-4.18 0-7.06-3.402-7.43-3.861a72.33 72.33 0 0 1-3.596-4.331c-5.42-7.092-5.985-14.229-1.55-19.583 1.714-2.068 4.09-3.161 6.87-3.161.207 0 .41.014.614.025C6.31 5.307 5.957 1.946 5.957 1.946c5.062-.58 7.536 1.737 8.71 3.702-.202-1.402-.633-2.934-1.506-4.185l2.086-1.465c1.31 1.876 1.842 4.14 2.035 6.045 1.07-2.032 3.523-4.716 8.93-4.097 0 0-.353 3.351-4.477 5.133.142-.004.283-.016.426-.016 2.781 0 5.157 1.093 6.87 3.16 4.436 5.355 3.871 12.492-1.549 19.584zm-6.987-17.085c.261.875.958 1.83.958 1.83s.69-.935.96-1.803c.234-.75-.184-1.71-.96-1.71-.777 0-1.178.943-.958 1.683zm-16.827 3.65c.26.874.957 1.829.957 1.829s.69-.935.96-1.803c.235-.75-.183-1.71-.96-1.71-.777 0-1.178.944-.957 1.684zm1.594 6.01c-.777 0-1.178.943-.957 1.683.26.875.957 1.83.957 1.83s.69-.935.961-1.803c.234-.75-.184-1.71-.96-1.71zm3.495 5.072c-.778 0-1.179.943-.958 1.682.261.875.958 1.83.958 1.83s.69-.935.96-1.802c.234-.75-.184-1.71-.96-1.71zm.022-10.211c-.777 0-1.178.943-.957 1.683.26.875.957 1.83.957 1.83s.69-.936.961-1.803c.234-.75-.184-1.71-.96-1.71zm1.486-2.326s.69-.935.96-1.803c.234-.75-.184-1.71-.96-1.71-.777 0-1.178.943-.958 1.683.261.875.958 1.83.958 1.83zm1.258 11.454s.69-.935.96-1.802c.235-.751-.183-1.71-.96-1.71-.777 0-1.178.943-.957 1.682.26.876.957 1.83.957 1.83zm1.38 5.195c-.777 0-1.178.943-.958 1.683.26.875.957 1.83.957 1.83s.691-.935.961-1.803c.234-.75-.184-1.71-.96-1.71zm1.438-10.724c.26.875.957 1.829.957 1.829s.69-.935.96-1.802c.234-.751-.183-1.71-.96-1.71-.778 0-1.178.943-.957 1.683zm1.048 5.98c-.778 0-1.178.943-.957 1.683.26.875.957 1.83.957 1.83s.69-.936.96-1.803c.234-.75-.183-1.71-.96-1.71zm.606-14.14c-.777 0-1.177.942-.957 1.682.26.875.957 1.83.957 1.83s.69-.935.96-1.803c.235-.75-.183-1.71-.96-1.71zm2.062 18.489c-.777 0-1.178.943-.957 1.683.26.874.957 1.83.957 1.83s.69-.936.961-1.804c.234-.75-.184-1.71-.96-1.71zm1.425-8.606c-.777 0-1.177.942-.957 1.683.26.875.957 1.83.957 1.83s.69-.936.96-1.803c.235-.75-.183-1.71-.96-1.71zm2.76 5.504c-.778 0-1.179.943-.958 1.683.261.875.958 1.83.958 1.83s.69-.935.96-1.803c.234-.75-.184-1.71-.96-1.71zm.363-10.583c-.777 0-1.178.943-.957 1.683.261.875.957 1.83.957 1.83s.69-.935.961-1.803c.234-.75-.184-1.71-.96-1.71zm4.518 4.866c-.778 0-1.178.943-.957 1.683.26.875.957 1.83.957 1.83s.69-.936.96-1.803c.234-.75-.183-1.71-.96-1.71zm.333-7.664c-.777 0-1.177.944-.957 1.684.26.874.957 1.829.957 1.829s.69-.935.96-1.803c.235-.75-.183-1.71-.96-1.71z"/></g></g></svg>