<svg xmlns="http://www.w3.org/2000/svg" width="32" height="32" viewBox="0 0 32 32"><g><g><path fill="#e3e9ea" d="M31.999 30.448v.003c0 .856-.671 1.549-1.5 1.549H1.501C.672 32 0 31.307 0 30.45v-.003H0s0-5.643 3.994-7.695c2.527-1.298 1.554-.245 4.657-1.573 3.102-1.326 3.837-1.79 3.837-1.79l.03-3.057s-1.163-.918-1.524-3.795c-.727.217-.967-.881-1.01-1.58-.039-.676-.42-2.785.466-2.595-.181-1.409-.311-2.679-.248-3.352.223-2.363 2.427-4.83 5.822-5.01 3.993.18 5.575 2.646 5.796 5.008.065.673-.077 1.944-.259 3.35.888-.187.502 1.92.459 2.595-.04.699-.285 1.793-1.01 1.577-.363 2.877-1.525 3.787-1.525 3.787l.027 3.042s.735.433 3.838 1.76c3.102 1.328 2.129.335 4.656 1.633C32 24.805 32 30.448 32 30.448z"/></g></g></svg>