<svg xmlns="http://www.w3.org/2000/svg" width="47" height="33" viewBox="0 0 47 33"><g><g><path fill="#00aeef" d="M47 26.4c0 3.645-3.006 6.6-6.714 6.6H11.75C5.26 33 0 27.83 0 21.45c0-4.647 2.799-8.643 6.825-10.475-.04-.358-.11-.707-.11-1.075 0-5.467 4.508-9.9 10.07-9.9 4.145 0 7.7 2.465 9.244 5.981a12.726 12.726 0 0 1 5.025-1.03c6.952 0 12.589 5.54 12.589 12.374 0 1.095-.16 2.15-.43 3.16C45.448 21.559 47 23.792 47 26.4zm-1.679 0c0-1.892-1.09-3.59-2.844-4.432l-1.239-.594.352-1.31c.248-.925.374-1.847.374-2.74 0-5.913-4.894-10.724-10.91-10.724-1.505 0-2.97.3-4.354.894l-1.544.662-.668-1.52c-1.33-3.029-4.354-4.986-7.702-4.986-4.628 0-8.393 3.7-8.393 8.25 0 .18.029.355.053.528.017.122.033.244.047.367l.131 1.18-1.094.497c-3.555 1.618-5.851 5.142-5.851 8.978 0 5.46 4.518 9.9 10.071 9.9h28.536c2.777 0 5.035-2.22 5.035-4.95z"/></g></g></svg>