<svg xmlns="http://www.w3.org/2000/svg" width="45" height="44" viewBox="0 0 45 44"><g><g><path fill="#00aeef" d="M18.609 20.625L30.273 9.421l-3.791 15.788a4.525 4.525 0 0 1-6.21 1.677c-2.173-1.266-2.918-4.069-1.663-6.261zm2.573 4.673c1.235.72 2.803.35 3.602-.81l2.267-9.44-6.974 6.699a2.765 2.765 0 0 0 1.105 3.551zM44.364 22c0 12.15-9.769 22-21.818 22C10.496 44 .727 34.15.727 22S10.496 0 22.546 0c12.05 0 21.818 9.85 21.818 22zm-1.842.917H38.91v-1.834h3.593a20.151 20.151 0 0 0-5.198-12.667l-2.545 2.565-1.285-1.296 2.543-2.565c-3.347-3.082-7.725-5.045-12.562-5.263V5.5h-1.819V1.857C16.8 2.075 12.421 4.038 9.074 7.12l2.543 2.565-1.285 1.296-2.545-2.565A20.151 20.151 0 0 0 2.59 21.083h3.593v1.834H2.569c.475 10.711 9.236 19.25 19.977 19.25 10.74 0 19.501-8.539 19.976-19.25z"/></g></g></svg>