<svg xmlns="http://www.w3.org/2000/svg" width="44" height="44" viewBox="0 0 44 44"><g><g><path fill="#00aeef" d="M14.909 16.5c0 2.025-1.628 3.667-3.636 3.667-2.009 0-3.637-1.642-3.637-3.667s1.628-3.667 3.637-3.667c2.008 0 3.636 1.642 3.636 3.667zm-1.818 0a1.826 1.826 0 0 0-1.818-1.833A1.826 1.826 0 0 0 9.454 16.5c0 1.012.814 1.833 1.819 1.833 1.004 0 1.818-.82 1.818-1.833zm12.727 0c0 2.025-1.628 3.667-3.636 3.667s-3.637-1.642-3.637-3.667 1.629-3.667 3.637-3.667 3.636 1.642 3.636 3.667zM24 16.5a1.826 1.826 0 0 0-1.818-1.833 1.826 1.826 0 0 0-1.819 1.833c0 1.012.814 1.833 1.819 1.833 1.004 0 1.818-.82 1.818-1.833zm12.727 0c0 2.025-1.628 3.667-3.636 3.667-2.009 0-3.637-1.642-3.637-3.667s1.628-3.667 3.637-3.667c2.008 0 3.636 1.642 3.636 3.667zm-1.818 0a1.826 1.826 0 0 0-1.818-1.833 1.826 1.826 0 0 0-1.819 1.833c0 1.012.814 1.833 1.819 1.833 1.004 0 1.818-.82 1.818-1.833zM44 5.5v22c0 3.038-2.442 5.5-5.455 5.5h-9.09L13.09 44l3.636-11H5.818C2.806 33 .364 30.538.364 27.5v-22C.364 2.463 2.806 0 5.818 0h32.727C41.558 0 44 2.463 44 5.5zm-1.819 0c0-2.025-1.628-3.667-3.636-3.667H5.818c-2.008 0-3.636 1.642-3.636 3.667v22c0 2.025 1.628 3.667 3.636 3.667h13.636l-3.636 9.166 12.727-9.166h10c2.008 0 3.636-1.642 3.636-3.667z"/></g></g></svg>