<svg xmlns="http://www.w3.org/2000/svg" width="44" height="41" viewBox="0 0 44 41"><g><g><path fill="#00aeef" d="M43.636 9.167v27.5c0 2.024-1.628 3.666-3.636 3.666H3.636C1.628 40.333 0 38.691 0 36.667v-27.5C0 7.142 1.628 5.5 3.636 5.5H40c2.008 0 3.636 1.642 3.636 3.667zm-1.818 20.166h-40v7.334c0 1.012.814 1.833 1.818 1.833H40c1.004 0 1.818-.82 1.818-1.833zm0-11h-40V27.5h40zm0-9.166A1.826 1.826 0 0 0 40 7.333H3.636c-1.004 0-1.818.821-1.818 1.834V16.5h40zm-25.454-5.5h-1.819C14.545 1.642 16.174 0 18.182 0h7.273c2.008 0 3.636 1.642 3.636 3.667h-1.818a1.826 1.826 0 0 0-1.818-1.834h-7.273c-1.004 0-1.818.821-1.818 1.834z"/></g></g></svg>